<svg xmlns="http://www.w3.org/2000/svg" xmlns:xlink="http://www.w3.org/1999/xlink" viewBox="0 0 248.7 286.05"><defs><style>.cls-1,.cls-14,.cls-8{fill:none;}.cls-2{isolation:isolate;}.cls-3{opacity:0.94;}.cls-4{fill:#fff;}.cls-5{fill:#ffce43;}.cls-6{clip-path:url(#clip-path);}.cls-7{fill:#69a2f9;}.cls-8{stroke:#69a2f9;mix-blend-mode:multiply;}.cls-14,.cls-8{stroke-linecap:round;stroke-linejoin:round;}.cls-16,.cls-8{stroke-width:0.86px;}.cls-9{fill:#ffc5c7;}.cls-10{fill:#ffb441;}.cls-11,.cls-16{fill:#312724;}.cls-12{fill:#aa654b;}.cls-13{fill:#f69e9b;}.cls-13,.cls-14,.cls-15{opacity:0.6;}.cls-14{stroke:#f27777;stroke-width:0.64px;}.cls-16{stroke:#312724;stroke-miterlimit:10;}.cls-17{fill:#ff7373;}.cls-18{fill:#e6e6e6;}.cls-19{fill:#f78c17;}.cls-20{fill:#fffbf3;}</style><clipPath id="clip-path"><circle class="cls-1" cx="124.35" cy="124.35" r="124.35" transform="translate(-51.51 124.35) rotate(-45)"/></clipPath></defs><title>Asset 1</title><g class="cls-2"><g id="Layer_2" data-name="Layer 2"><g id="OBJECTS"><g class="cls-3"><circle class="cls-4" cx="124.35" cy="124.35" r="124.35" transform="translate(-51.51 124.35) rotate(-45)"/><circle class="cls-5" cx="52.38" cy="51.71" r="31.63"/><path class="cls-4" d="M28.73,57.29c.06-.36.13-.72.2-1.08s.16-.75.27-1.15a1,1,0,0,1-.65.28.62.62,0,0,1-.69-.71A.8.8,0,0,1,28,54.2a3.72,3.72,0,0,1,.38-.51c.16-.17.33-.35.52-.53l.58-.54a5.46,5.46,0,0,0,.54-.53,36.25,36.25,0,0,1,1.25-3.55,23.31,23.31,0,0,1,1.48-3,9.6,9.6,0,0,1,1.65-2.13,2.57,2.57,0,0,1,1.72-.8,1.28,1.28,0,0,1,.44.09A1.46,1.46,0,0,1,37,43a1.44,1.44,0,0,1,.35.52,2,2,0,0,1,.15.82,4.67,4.67,0,0,1-.74,2.34,19.19,19.19,0,0,1-2.25,3,2.72,2.72,0,0,1,.54-.15,3.15,3.15,0,0,1,.52,0A1.71,1.71,0,0,1,37,50a2.31,2.31,0,0,1,.48,1.56,5.68,5.68,0,0,1,0,.81c0,.29-.07.56-.12.82l-.12.72a3.36,3.36,0,0,0-.06.54,2.94,2.94,0,0,0,.31,1.45,1.05,1.05,0,0,0,1,.56,3.42,3.42,0,0,0,1.82-.65,10.21,10.21,0,0,0,2-1.85,2,2,0,0,1,.42-.35.74.74,0,0,1,.41-.14c.5,0,.75.23.75.71a1,1,0,0,1-.36.71l0,0a13.51,13.51,0,0,1-2.83,2.54,5.1,5.1,0,0,1-2.76.9,2.37,2.37,0,0,1-1.95-.86,3.88,3.88,0,0,1-.69-2.47,10.48,10.48,0,0,1,.29-2.18,1,1,0,0,0,0-.3l0-.41c0-.53-.19-.79-.57-.79a2.29,2.29,0,0,0-1.19.42,6,6,0,0,0-1.31,1.2,9,9,0,0,0-1.19,1.87,9.47,9.47,0,0,0-.8,2.46,1.44,1.44,0,0,1-.15.31,1.4,1.4,0,0,1-.27.33,3.09,3.09,0,0,1-.37.26.88.88,0,0,1-.43.1c-.41,0-.61-.21-.61-.63,0-.06,0-.11,0-.15A.19.19,0,0,1,28.73,57.29ZM31.17,51c.52-.53,1-1.06,1.54-1.6-.14.34-.26.69-.38,1s-.23.71-.33,1.07Zm4.45-6.52a.91.91,0,0,0-.64.38,6.93,6.93,0,0,0-.73,1c-.25.45-.51,1-.78,1.57s-.52,1.24-.76,1.92c.35-.38.69-.76,1-1.12s.6-.72.85-1a10.52,10.52,0,0,0,.62-.88,3.64,3.64,0,0,0,.34-.7,3,3,0,0,0,.16-.81,2.18,2.18,0,0,0,0-.27C35.66,44.46,35.65,44.43,35.62,44.43Z"/><path class="cls-4" d="M47,52.42a5.63,5.63,0,0,1-1.11,1.29,10.94,10.94,0,0,1-2,1.37,2.27,2.27,0,0,0,.82,1.2,2.46,2.46,0,0,0,1.55.46,5.29,5.29,0,0,0,2.25-.62A10.38,10.38,0,0,0,51.28,54a1.13,1.13,0,0,1,.77-.41.64.64,0,0,1,.53.23.77.77,0,0,1,.2.47,1.1,1.1,0,0,1-.4.77,13.34,13.34,0,0,1-3.6,2.73,7.16,7.16,0,0,1-3,.8,4.29,4.29,0,0,1-1.62-.29,3.29,3.29,0,0,1-2-2A4.54,4.54,0,0,1,42,54.69,16.16,16.16,0,0,1,42.19,53a6.21,6.21,0,0,1,.55-1.64,3.48,3.48,0,0,1,1-1.23,2.85,2.85,0,0,1,1.72-.48,2,2,0,0,1,1.37.43,1.47,1.47,0,0,1,.48,1.14,2,2,0,0,1-.09.58,2.71,2.71,0,0,1-.28.64Zm-3.88,1.3.41-.22.39-.21a3.27,3.27,0,0,0,0,.45l0,.46ZM45,51.48a.73.73,0,0,0-.47.15,1.07,1.07,0,0,0-.31.4,2.33,2.33,0,0,0-.21.58,6.86,6.86,0,0,0-.12.68c1-.64,1.6-1.18,1.64-1.62a.29.29,0,0,0-.2-.14A.88.88,0,0,0,45,51.48Z"/><path class="cls-4" d="M59.3,53.92a1.11,1.11,0,0,1,.83-.49.8.8,0,0,1,.53.16.67.67,0,0,1,.19.53,1.32,1.32,0,0,1-.31.69,11.27,11.27,0,0,1-1.49,1.45,10.63,10.63,0,0,1-1.54,1.06A8.54,8.54,0,0,1,56,58a5,5,0,0,1-1.36.21,3.93,3.93,0,0,1-1-.12,2.14,2.14,0,0,1-.8-.43,2,2,0,0,1-.54-.75,2.7,2.7,0,0,1-.2-1.12v-.28a1.15,1.15,0,0,1,0-.31.85.85,0,0,1-.46.16c-.46,0-.68-.24-.68-.71a1,1,0,0,1,.21-.5,5.78,5.78,0,0,1,.53-.64c.21-.23.44-.45.68-.68l.66-.62c.11-.29.21-.58.31-.88l.3-.88c.4-1.07.82-2.09,1.26-3a18.43,18.43,0,0,1,1.4-2.5,8.78,8.78,0,0,1,1.47-1.69,2.3,2.3,0,0,1,1.45-.62,1.46,1.46,0,0,1,.42.08,1.18,1.18,0,0,1,.45.28,1.65,1.65,0,0,1,.36.53,2,2,0,0,1,.15.83,4,4,0,0,1-.38,1.61,9.71,9.71,0,0,1-1.13,1.9q-.77,1-1.89,2.28c-.76.83-1.64,1.75-2.65,2.76L54.22,54A3.62,3.62,0,0,0,54,55.22a1.17,1.17,0,0,0,.3.82,1.14,1.14,0,0,0,.88.32,4.21,4.21,0,0,0,2-.61A8,8,0,0,0,59.3,53.92Zm-4.18-2.44L54.29,51c.31-.31.59-.6.85-.89l.77-.83c-.07.2-.14.4-.22.6s-.15.41-.21.6Zm3.67-7.07a.88.88,0,0,0-.59.39,6.29,6.29,0,0,0-.72,1.05,17,17,0,0,0-.79,1.55c-.27.59-.53,1.21-.78,1.87a27.74,27.74,0,0,0,2.17-2.64,3.49,3.49,0,0,0,.77-1.85c0-.11,0-.19,0-.27S58.81,44.41,58.79,44.41Z"/><path class="cls-4" d="M67.33,53.92a1.14,1.14,0,0,1,.83-.49.78.78,0,0,1,.53.16.65.65,0,0,1,.2.53,1.32,1.32,0,0,1-.31.69,11.92,11.92,0,0,1-1.49,1.45,10.7,10.7,0,0,1-1.55,1.06,8.16,8.16,0,0,1-1.49.64,5,5,0,0,1-1.36.21,3.87,3.87,0,0,1-1-.12,2.11,2.11,0,0,1-.81-.43,2,2,0,0,1-.54-.75,2.88,2.88,0,0,1-.2-1.12v-.28a1.76,1.76,0,0,1,0-.31.85.85,0,0,1-.45.16.62.62,0,0,1-.69-.71.91.91,0,0,1,.22-.5,4.84,4.84,0,0,1,.53-.64c.21-.23.44-.45.68-.68l.66-.62c.1-.29.21-.58.3-.88s.2-.59.31-.88c.39-1.07.81-2.09,1.26-3a17.41,17.41,0,0,1,1.4-2.5,8.45,8.45,0,0,1,1.47-1.69,2.28,2.28,0,0,1,1.44-.62,1.59,1.59,0,0,1,.43.08,1.35,1.35,0,0,1,.45.28,1.65,1.65,0,0,1,.36.53,2.21,2.21,0,0,1,.14.83,4,4,0,0,1-.37,1.61,10.24,10.24,0,0,1-1.13,1.9q-.76,1-1.89,2.28c-.76.83-1.64,1.75-2.65,2.76L62.25,54A3.58,3.58,0,0,0,62,55.22a1.21,1.21,0,0,0,.29.82,1.16,1.16,0,0,0,.89.32,4.24,4.24,0,0,0,2-.61A7.84,7.84,0,0,0,67.33,53.92Zm-4.17-2.44L62.33,51c.3-.31.59-.6.85-.89l.77-.83c-.07.2-.14.4-.22.6l-.22.6Zm3.66-7.07c-.17,0-.36.13-.59.39a7.79,7.79,0,0,0-.72,1.05c-.25.44-.52,1-.79,1.55s-.52,1.21-.77,1.87a26,26,0,0,0,2.16-2.64,3.41,3.41,0,0,0,.77-1.85,2.18,2.18,0,0,0,0-.27C66.87,44.44,66.85,44.41,66.82,44.41Z"/><path class="cls-4" d="M68.69,51.62c.23-.25.43-.46.61-.63a2.86,2.86,0,0,1,.62-.4,2.27,2.27,0,0,1,.7-1.05,1.68,1.68,0,0,1,1.09-.41,1.91,1.91,0,0,1,.92.28,3.2,3.2,0,0,1,.9.76,4.23,4.23,0,0,1,.67,1.14,3.75,3.75,0,0,1,.27,1.43,4.47,4.47,0,0,1,0,.67c0,.19-.11.45-.21.77a3.53,3.53,0,0,0,1.75.47A1.92,1.92,0,0,0,77.48,54l0,0a1,1,0,0,1,.83-.47.8.8,0,0,1,.53.16.68.68,0,0,1,.2.53.66.66,0,0,1-.09.33,2.68,2.68,0,0,1-.25.37,4.59,4.59,0,0,1-1.56,1.21,4.34,4.34,0,0,1-1.69.35,5.67,5.67,0,0,1-1-.09,3.85,3.85,0,0,1-1-.36,4.76,4.76,0,0,1-1.64,1.69,3.76,3.76,0,0,1-1.9.55,2.65,2.65,0,0,1-2.07-.72,2.91,2.91,0,0,1-.65-2,5,5,0,0,1,.48-2.13A7.86,7.86,0,0,1,68.69,51.62ZM72,55.2a6.57,6.57,0,0,1-1.29-1.29A5,5,0,0,1,70,52.42a2,2,0,0,0-.37.49,4,4,0,0,0-.32.66,4.68,4.68,0,0,0-.24.72,3.07,3.07,0,0,0-.09.71,1.65,1.65,0,0,0,.31,1,1.25,1.25,0,0,0,1.07.4A2,2,0,0,0,72,55.2Zm-1.65-3a.8.8,0,0,0-.42.25c0-.12,0-.23-.07-.34a2,2,0,0,1-.06-.35Zm1.24-1.05a.73.73,0,0,0-.34-.13H71.2a.49.49,0,0,1-.49-.29.47.47,0,0,1,.11-.54s-.06.07-.06.1l.93.35a.83.83,0,0,0-.08.36Zm0,0a2.3,2.3,0,0,0,.32.89,5.59,5.59,0,0,0,.7.94,2.7,2.7,0,0,0-.38-1.13A2.32,2.32,0,0,0,71.61,51.12Zm1,2.76a1.77,1.77,0,0,0,.06-.3,1.56,1.56,0,0,0,0-.31v-.16a.47.47,0,0,0,0-.16,4.39,4.39,0,0,0,.71.65Z"/><path class="cls-5" d="M81.53,81.54a1.91,1.91,0,0,1-2.84,2.1,139.11,139.11,0,0,1-12.15-7.81c-2-1.6,6.07-11.54,10.31-8.47C78.11,68.27,80.26,76.35,81.53,81.54Z"/><g class="cls-6"><path class="cls-7" d="M212.93,151.94c-4.36-8.71-15.76-50.92-91.59-46.43-29.12,1.72-45.59,10.27-45.67,10.39-6.8,3.52-27.48,14.58-34.76,44.25-10.47,42.68-10.8,122-10.69,124,12,3.06,23.72,2.3,35.65-1.09,0,0,7.23-78.07,8-85.79-.09,14-2.42,81.79-2.23,86.52,36.8-.57,111.08-1.09,118.46-1.71-.63-4.65-8.69-107.87-8.69-107.87"/><path class="cls-8" d="M69.06,174.81A38,38,0,0,0,74,198.87"/><path class="cls-8" d="M76.82,172.74c-3.71,36.53-4.55,74.3-4.63,111"/><path class="cls-7" d="M191.26,192.28c6,5.57,18,14.15,31.37,3,4.22-3.53-8.08-41.9-15.38-53a3.46,3.46,0,0,0-1.4-1.41,3.41,3.41,0,0,0-2,0l-29.1,6c-1.93.4,4.74,22.74,5.47,25C182.77,179.46,185.16,186.63,191.26,192.28Z"/><path class="cls-9" d="M245.45,87.82a2,2,0,0,0-2.49.46c-.72.5-2.45,4.4-4.1,5.64-1.07.8-1.27-.52-.69-2.37,1.55-4.89,3.41-10.86,3.26-12.3-.1-.94-.45-2-1.57-2a2,2,0,0,0-1.81,1.19l-5.77,11.93c-.55,1.08-1.93.49-1.8-.77.48-4.36,1.18-10.5,1-12.7a6.4,6.4,0,0,0-.18-1.15,1.25,1.25,0,0,0-2.19-.49,8.58,8.58,0,0,0-1.59,3.25c-1,3.76-1.73,6.54-2.42,10.28a.59.59,0,0,1-1.15,0c-.79-3.36-1.82-8.42-2.7-10.88-1.57-4.42-4.53-2.14-4.31.72.13,1.62.82,14.24,1.22,19.66a.51.51,0,0,1-.94.3c-5.9-9.39-9.05-4.81-9.07-4.78a2.4,2.4,0,0,0,.62,2.89c.67.68,2.57,2,4.29,9.14a15.31,15.31,0,0,0,2.11,4.59,2.89,2.89,0,0,1,.7,2c-.26,2.17-.47,3.82-.55,4.18-.17.71,16.15,5.89,18.64,6.27.59.09.4-7.95,1.57-9.91,4.54-7.63,7.73-17,9.95-22.9C245.69,89.36,246.25,88.33,245.45,87.82Z"/><path class="cls-10" d="M209,122.56l1.13-10.19s16.94-.85,30.55,5l-1.53,10Z"/><path class="cls-7" d="M227.1,190.53c5.29-11.54,14.54-61.37,15.53-67.7-11-5.79-24.18-7.17-36.57-6.67l-11,49c-5.32,19.09,3.58,35.64,16.86,35.32C221.45,200.29,224.88,195.38,227.1,190.53Z"/><path class="cls-8" d="M189.71,281.73c-3.43-35.14-5.05-73-9.16-111.07a30.5,30.5,0,0,1,3.27-18.16"/><path class="cls-8" d="M202.65,133.26c-1.23,8.56-2.08,10-3.22,20.84"/><path class="cls-11" d="M96.19,44.77a8.25,8.25,0,0,0-2.83,8.17c.4,1.92,1.4,3.66,1.78,5.58a9.06,9.06,0,0,1-1,6.28c1.46,0,2.47-1.36,3.4-2.47a48,48,0,0,1,5.1-4.77A13.72,13.72,0,0,0,106.72,52C108.88,45.6,101.43,40.81,96.19,44.77Z"/><path class="cls-12" d="M143.46,125.37c-1.63,2.93-4.66,4.62-7.7,5.73a33.61,33.61,0,0,1-21.3.49c-2.85-.89-5.76-2.28-7.48-4.85-2.33-3.46-2-8.11-1.38-12.29a134.91,134.91,0,0,1,3.07-14.8c.72-2.7,1.15-7.22,3.71-8.62,1.76-1,27.26-1.27,27.24-1.79q2.65,11.94,4.62,24.05C144.91,117.36,145.45,121.83,143.46,125.37Z"/><path class="cls-9" d="M143.46,125.37c-1.63,2.93-4.66,4.62-7.7,5.73a33.61,33.61,0,0,1-21.3.49c-2.85-.89-5.76-2.28-7.48-4.85-2.33-3.46-2-8.11-1.38-12.29a134.91,134.91,0,0,1,3.07-14.8c.72-2.7,1.15-7.22,3.71-8.62,1.76-1,27.26-1.27,27.24-1.79q2.65,11.94,4.62,24.05C144.91,117.36,145.45,121.83,143.46,125.37Z"/><path class="cls-13" d="M109.43,96.34c.52-2.17,1.29-4.39,2.95-5.31s27.26-1.27,27.24-1.79q1.83,8.24,3.34,16.55C143.41,108.29,114.54,112.4,109.43,96.34Z"/><path class="cls-9" d="M149.78,64.73l.45,12.55a24.09,24.09,0,0,1-23.1,24.81l-1.14,0A24.06,24.06,0,0,1,101.18,79l-.45-12.55a24.18,24.18,0,0,1,.21-4.1c1.55-11.31.42-19.85,22.89-19.85l1.14,0c25.11,0,22,7,24.31,18.17A23.71,23.71,0,0,1,149.78,64.73Z"/><path class="cls-9" d="M104.2,72.66a5.17,5.17,0,1,1-5.34-5.53C101.7,67,104.08,69.51,104.2,72.66Z"/><path class="cls-9" d="M156.66,70.79a5.16,5.16,0,1,1-5.33-5.52A5.43,5.43,0,0,1,156.66,70.79Z"/><path class="cls-11" d="M150.46,71.6h-.73a.86.86,0,0,1-.85-.69c-1.32-7-2.1-17.73-2.1-17.73s-5.43,1.8-22.36,2c-19.93.25-21.12-1.82-21.12-1.82s-.11,10.17-1,17.49a.85.85,0,0,1-.85.75h-.88a.86.86,0,0,1-.86-.79c-.41-5.58-.72-12.6-.76-12.92-.56-4.19,3.69-21.75,26.32-21.61,8.3,0,14.9,2.53,19.19,6.76,5,4.94,7,11.93,7,15.09,0,.65,0,7.51-.13,12.64A.86.86,0,0,1,150.46,71.6Z"/><path class="cls-14" d="M121.39,77.55a1.41,1.41,0,0,0,.26,1.34,1.13,1.13,0,0,0,1.31.26.83.83,0,0,1,.91.25c.23.25.39.56.61.81a1.74,1.74,0,0,0,2,.35c.49-.26.85-.75,1.37-.91s1.24.07,1.75-.23a1.27,1.27,0,0,0,.47-.53c.26-.5,0-1.55.1-1.52"/><g class="cls-15"><path class="cls-13" d="M148.61,79.81a5.32,5.32,0,1,1-5.51-5.21A5.37,5.37,0,0,1,148.61,79.81Z"/><path class="cls-13" d="M113.63,81.34a5.32,5.32,0,1,1-5.51-5.21A5.37,5.37,0,0,1,113.63,81.34Z"/></g><path class="cls-16" d="M111.93,70.81a.92.92,0,0,1,1.25-.6,1.47,1.47,0,0,1,.78,1.3,1.16,1.16,0,0,1-.29.89,1,1,0,0,1-1.39-.12A1.59,1.59,0,0,1,112,70.8"/><path class="cls-16" d="M135.27,70.81a.92.92,0,0,1,1.25-.6,1.47,1.47,0,0,1,.78,1.3,1.16,1.16,0,0,1-.29.89,1,1,0,0,1-1.39-.12,1.59,1.59,0,0,1-.26-1.48"/><path class="cls-11" d="M107.29,66.41a8.78,8.78,0,0,1,2.92-1.55,12.94,12.94,0,0,1,3.12-.6,12.59,12.59,0,0,1,3.18.18,8.91,8.91,0,0,1,3.1,1.14,13.49,13.49,0,0,1-3.09,1,24.12,24.12,0,0,1-3,.4,23.56,23.56,0,0,1-3,0A14,14,0,0,1,107.29,66.41Z"/><path class="cls-11" d="M130.5,65.18a8.74,8.74,0,0,1,2.95-1.33,13,13,0,0,1,3.09-.39,12.47,12.47,0,0,1,3.09.35,8.94,8.94,0,0,1,3,1.28,12.18,12.18,0,0,1-3.08.85,20,20,0,0,1-3,.23,23,23,0,0,1-3-.19A13.23,13.23,0,0,1,130.5,65.18Z"/><path class="cls-17" d="M120.8,87.3a.34.34,0,0,0-.21.58c1.27,1.24,2.86,2.68,4.5,2.76s4.2-1.66,5.84-3.18a.56.56,0,0,0-.42-1Z"/><path class="cls-11" d="M107.25,32a12.71,12.71,0,0,1,9-4.24c7.25-.21,13.8,5.78,21,4.87,2.18-.27,4.22-1.17,6.37-1.62s4.59-.37,6.25,1.06a7.64,7.64,0,0,1,2.85,5.24c.16,5.72,3.41,5.09,4.81,7.82s1.89,6.32-.09,8.66a9.52,9.52,0,0,1-2.78,2.48c-5,2.58-2.83,11.68-3.42,10-.72-2-1.57-9.79-2.58-15.29-.14-.74-26.53-4.59-37-3.51-4.19.43-8.09.55-8.37-4.83A17.43,17.43,0,0,1,107.25,32Z"/><path class="cls-18" d="M139.79,125.08v4.6L130,139.46a6.58,6.58,0,0,1-9.3,0l-9.64-9.64v-4.73a2.27,2.27,0,0,1,2.27-2.27h24.17A2.28,2.28,0,0,1,139.79,125.08Z"/><path class="cls-10" d="M126.5,130.32a1.26,1.26,0,1,1-1.26-1.26A1.25,1.25,0,0,1,126.5,130.32Z"/><path class="cls-19" d="M125.24,130.72a.4.4,0,1,1,.41-.4A.4.4,0,0,1,125.24,130.72Z"/><path class="cls-10" d="M126.5,136.43a1.26,1.26,0,1,1-1.26-1.26A1.26,1.26,0,0,1,126.5,136.43Z"/><path class="cls-19" d="M125.24,136.83a.41.41,0,0,1,0-.81.41.41,0,1,1,0,.81Z"/><path class="cls-20" d="M105.22,103.05,94.84,111.9a2,2,0,0,0-.23,2.92l17.91,20.24a2.57,2.57,0,0,0,3.85-.1l8.43-10.79a1.72,1.72,0,0,0,0-2.18l-15.65-18.65A2.82,2.82,0,0,0,105.22,103.05Z"/><path class="cls-20" d="M145.21,103.05l10.38,8.85a2,2,0,0,1,.23,2.92l-17.91,20.24a2.56,2.56,0,0,1-3.84-.1l-8.43-10.79a1.69,1.69,0,0,1,0-2.18l15.65-18.65A2.81,2.81,0,0,1,145.21,103.05Z"/></g></g></g></g></g></svg>